<?xml version="1.0" encoding="UTF-8"?>
<svg xmlns="http://www.w3.org/2000/svg" width="127" height="25" viewBox="0 0 127 25" fill="none">
  <path d="M13.4925 21.4218L13.2339 23.1453H15.8775L15.4162 24.7617L17.4547 24.661L18.577 21.2842C18.577 21.2842 16.3714 21.5561 13.4925 21.4215V21.4218Z" fill="white"></path>
  <path d="M16.3118 16.2974L19.1421 16.2317L18.6089 19.0456L20.6617 18.8364C20.6617 18.8364 21.4213 15.5069 21.4409 13.6862L16.6581 13.5198L16.3115 16.2971L16.3118 16.2974Z" fill="white"></path>
  <path d="M18.5755 5.41504L18.7624 7.64405L21.1106 8.20695L21.2542 10.9763L22.9687 11.2512C22.9687 11.2512 22.9987 9.5711 22.5583 6.59047L18.5752 5.41534L18.5755 5.41504Z" fill="white"></path>
  <path d="M2.92125 8.91017C2.92125 8.91017 2.66328 10.1953 2.7361 11.3006L4.80967 11.4382L4.81591 14.4836L6.97775 14.8503C6.97775 14.8503 6.82023 13.4594 7.31775 8.8335L2.92125 8.91017Z" fill="white"></path>
  <path d="M15.78 4.46704L18.0917 4.94999L17.6527 1.36515C17.6527 1.36515 16.381 0.881606 13.0648 0.5L12.9849 1.99968L15.6858 2.40417L15.78 4.46704Z" fill="white"></path>
  <path d="M16.1666 12.874C16.1666 12.874 16.3494 9.62712 16.2609 6.90208C16.2609 6.90208 14.2224 6.42508 10.2824 6.31689L9.92334 8.82884L13.488 9.04461L13.2933 12.6868L16.1666 12.874Z" fill="white"></path>
  <path d="M19.23 0.671387L19.468 2.08279L21.355 2.7833L21.7877 4.54362L23.3584 5.1719L22.4436 1.99007L19.23 0.671387Z" fill="white"></path>
  <path d="M7.23932 5.87552L9.72957 5.77328L10.5439 1.62554C10.5439 1.62554 8.7063 1.52182 5.86952 1.8847L5.30127 3.67385L7.81559 3.43549L7.23932 5.87552Z" fill="white"></path>
  <path d="M0.461256 4.54844L0 6.42408L1.51186 6.12837C1.51186 6.12837 1.15641 7.95615 1.12401 8.53807L2.66619 8.40849C2.66619 8.40849 3.17797 4.97196 3.70818 3.80396L0.461256 4.54844Z" fill="white"></path>
  <path d="M7.54932 15.5698L7.65007 17.9795L10.653 18.491L10.5971 20.9004L13.0669 21.1596L13.6208 16.3054C13.6208 16.3054 10.9752 16.2014 7.54991 15.5698H7.54932Z" fill="white"></path>
  <path d="M70.4754 20.3804C67.9584 20.3804 66.0807 18.9461 65.9241 15.8945H76.8914V14.5904C76.8914 10.8085 74.6484 8.07007 70.4234 8.07007C66.2501 8.07007 63.5898 10.8085 63.5898 15.2424C63.5898 19.6764 65.9894 22.4148 70.4754 22.4148C74.7789 22.4148 76.5523 19.7807 76.9434 17.7202H74.4918C74.1134 19.2591 73.0052 20.3804 70.4754 20.3804ZM70.4234 10.1044C72.9012 10.1044 74.4401 11.4347 74.5444 13.9383H65.9897C66.3812 11.3824 68.1804 10.1044 70.4237 10.1044H70.4234Z" fill="white"></path>
  <path d="M37.8848 11.5652L35.5113 11.1479C33.6333 10.8219 31.9642 10.1178 31.9642 8.13551C31.9642 6.12732 33.6072 5.07107 36.1634 5.07107C38.7196 5.07107 40.4669 6.1404 40.5973 8.59201H43.1271C42.9708 4.67995 39.8148 2.85425 36.1634 2.85425C32.512 2.85425 29.4606 4.66688 29.4606 8.16167C29.4606 11.6565 32.147 12.9086 34.6509 13.352L37.0241 13.7693C38.9933 14.1214 40.806 14.8124 40.806 16.8729C40.806 18.9334 39.2148 20.1983 36.4502 20.1983C33.6856 20.1983 31.599 18.9465 31.4165 15.8948H28.8867C29.0169 20.4069 32.5643 22.4151 36.4502 22.4151C40.3361 22.4151 43.3099 20.3939 43.3099 16.8468C43.3099 13.2997 40.6363 12.0479 37.8848 11.5652Z" fill="white"></path>
  <path d="M52.1731 8.07042C49.5652 8.07042 48.3654 9.13975 47.609 10.6525C47.6069 10.6567 47.6046 10.6608 47.6028 10.665H47.2182C47.2182 10.6608 47.2179 10.6567 47.2179 10.6525V3.24536H44.8706V22.024H47.2179V14.9818C47.2179 11.7218 48.7827 10.1568 51.3909 10.1568C53.7382 10.1568 55.0423 11.4609 55.0423 13.9387V22.024H57.3896V13.5475C57.3896 10.0266 55.4334 8.07042 52.1731 8.07042Z" fill="white"></path>
  <path d="M61.8805 8.46143H59.5332V22.0236H61.8805V8.46143Z" fill="white"></path>
  <path d="M61.8779 3.24536H59.5312V5.59236H61.8779V3.24536Z" fill="white"></path>
  <path d="M94.0314 10.7825V10.7834H93.6418C93.6325 10.767 93.6233 10.7495 93.6138 10.7302C92.727 8.98264 91.1622 8.06993 88.9192 8.06993C85.6589 8.06993 82.3989 10.4172 82.3989 15.2423C82.3989 20.0674 85.6589 22.4146 88.9192 22.4146C91.1622 22.4146 92.727 21.5019 93.6138 19.7544C93.6266 19.7288 93.6388 19.706 93.6507 19.6854H94.0305C94.0305 19.6908 94.0311 19.6964 94.0311 19.7021V22.0235H96.3784V3.24487H94.0311V10.7825H94.0314ZM89.4673 20.3283C86.7289 20.3283 84.7727 18.5026 84.7727 15.2423C84.7727 11.982 86.7289 10.1566 89.4673 10.1566C92.2057 10.1566 94.1619 11.9823 94.1619 15.2423C94.1619 18.5023 92.2057 20.3283 89.4673 20.3283Z" fill="white"></path>
  <path d="M125.773 19.6025C125.773 19.2964 125.519 19.05 125.08 19.05H124.115V21.1816H124.593V20.471H124.953C125.168 20.471 125.285 20.5696 125.285 20.7572V21.1813H125.763V20.6386C125.763 20.4014 125.587 20.2142 125.344 20.2142V20.0463C125.558 20.0365 125.773 19.8885 125.773 19.6022L125.773 19.6025ZM124.954 20.0564H124.593V19.4542H124.954C125.168 19.4542 125.276 19.5924 125.276 19.7503C125.276 19.8983 125.168 20.0564 124.954 20.0564Z" fill="white"></path>
  <path d="M80.8248 3.24536H78.4775V22.024H80.8248V3.24536Z" fill="white"></path>
  <path d="M124.895 18.0432C123.715 18.0432 122.837 18.9711 122.837 20.1254C122.837 21.2901 123.715 22.2076 124.915 22.2076C126.144 22.2076 127.002 21.2503 127.002 20.1156C127.002 18.961 126.134 18.0432 124.895 18.0432ZM124.915 21.7342C123.998 21.7342 123.345 21.0336 123.345 20.1254C123.345 19.1978 123.998 18.5268 124.896 18.5268C125.851 18.5268 126.495 19.1782 126.495 20.1156C126.495 21.053 125.861 21.7339 124.915 21.7339L124.915 21.7342Z" fill="white"></path>
  <path d="M121.66 3.24536H119.307V22.0237H121.66V3.24536Z" fill="white"></path>
  <path d="M108.164 3.24487L101.705 20.654V22.0235H103.891L105.341 17.9569H113.966L115.443 22.0235H117.777V20.6558L111.221 3.24487H108.165H108.164ZM106.144 15.7038L109.512 6.20262H109.719L113.138 15.7038H106.144Z" fill="white"></path>
</svg>
